<svg width="49" height="49" viewBox="0 0 49 49" fill="none" xmlns="http://www.w3.org/2000/svg">
<rect x="0.5" y="0.5" width="48" height="48" rx="3.5" fill="white" stroke="#C8102E"/>
<path fill-rule="evenodd" clip-rule="evenodd" d="M26.05 38.5C26.1605 38.5 26.25 38.4105 26.25 38.3L26.25 17.6328C26.25 17.4547 26.4654 17.3654 26.5914 17.4914L35.9086 26.8086C35.9867 26.8867 36.1133 26.8867 36.1914 26.8086L38.3586 24.6414C38.4367 24.5633 38.4367 24.4367 38.3586 24.3586L24.6414 10.6414C24.5633 10.5633 24.4367 10.5633 24.3586 10.6414L10.6464 24.3536C10.5664 24.4336 10.5686 24.564 10.6513 24.6413L12.9825 26.817C13.0618 26.891 13.1856 26.8883 13.2616 26.8109L22.4073 17.4989C22.5328 17.3712 22.75 17.46 22.75 17.6391L22.75 38.3C22.75 38.4105 22.8395 38.5 22.95 38.5H26.05Z" fill="#C8102E"/>
</svg>
